<svg width="20" height="21" viewBox="0 0 20 21" fill="none" xmlns="http://www.w3.org/2000/svg">
<path d="M16.9167 12.8181V18.1082C16.9167 18.7985 16.357 19.3582 15.6667 19.3582H12.4167V15.2102C12.4167 14.2437 11.6332 13.4602 10.6667 13.4602H9.33333C8.36683 13.4602 7.58333 14.2437 7.58333 15.2102V19.3582H4.33333C3.64298 19.3582 3.08333 18.7985 3.08333 18.1082V12.8181C3.08333 12.3725 2.72206 12.0112 2.27642 12.0112H2.25219C1.42255 12.0112 0.75 11.3387 0.75 10.509C0.75 10.1233 0.898378 9.75236 1.1644 9.47304L9.10259 1.13793C9.59338 0.622609 10.4147 0.620404 10.9083 1.13309L18.8091 9.34021C19.092 9.63408 19.25 10.0261 19.25 10.434V10.4848C19.25 11.3278 18.5666 12.0112 17.7236 12.0112C17.2779 12.0112 16.9167 12.3725 16.9167 12.8181Z" stroke="#0D0140" stroke-width="1.5"/>
</svg>
