<svg width="22" height="19" viewBox="0 0 22 19" fill="none" xmlns="http://www.w3.org/2000/svg">
<path d="M0.767442 3.83721C0.767442 2.14182 2.14182 0.767442 3.83721 0.767442H5.54264C6.42824 0.767442 7.28996 1.05468 7.99845 1.58605L9.90853 3.0186C10.617 3.54997 11.4787 3.83721 12.3643 3.83721H18.1628C19.8582 3.83721 21.2326 5.21159 21.2326 6.90698V15.093C21.2326 16.7884 19.8582 18.1628 18.1628 18.1628H3.83721C2.14182 18.1628 0.767442 16.7884 0.767442 15.093V3.83721Z" stroke="#3B4657" stroke-width="1.5"/>
<path d="M4.86047 0.767442H13.4776C14.5947 0.767442 15.6632 1.22402 16.4354 2.03128L18.1628 3.83721" stroke="#3B4657" stroke-width="1.5"/>
<path d="M13.8942 10.8244L11.3618 8.29201C11.162 8.0922 10.838 8.0922 10.6382 8.29201L8.1058 10.8244" stroke="#3B4657" stroke-width="1.5" stroke-linecap="round"/>
<path d="M11 8.95349V14.0698" stroke="#3B4657" stroke-width="1.5" stroke-linecap="round"/>
</svg>
