<svg width="20" height="12" viewBox="0 0 20 12" fill="none" xmlns="http://www.w3.org/2000/svg">
<path d="M19.2389 6.36556C19.6593 6.36556 20 6.02482 20 5.6045C20 5.18417 19.6593 4.84343 19.2389 4.84343V6.36556ZM0.222879 5.06634C-0.0743367 5.36355 -0.0743367 5.84544 0.222879 6.14265L5.0663 10.9861C5.36351 11.2833 5.84539 11.2833 6.14261 10.9861C6.43983 10.6889 6.43983 10.207 6.14261 9.90975L1.83735 5.6045L6.14261 1.29924C6.43983 1.00202 6.43983 0.520138 6.14261 0.222921C5.84539 -0.0742951 5.36351 -0.0742951 5.0663 0.222921L0.222879 5.06634ZM19.2389 4.84343L0.761037 4.84343V6.36556L19.2389 6.36556V4.84343Z" fill="white"/>
</svg>
