<svg width="29" height="24" viewBox="0 0 29 24" fill="none" xmlns="http://www.w3.org/2000/svg">
<path d="M22.5917 20.954V12.6009L5.34526 10.6652V20.9541C5.34526 21.8743 5.96562 22.6842 6.86064 22.8982C12.1943 24.1736 15.7426 24.1735 21.0762 22.8982C21.9713 22.6842 22.5917 21.8743 22.5917 20.954Z" fill="#FF9228"/>
<path d="M12.0606 1.0196L1.02026 7.20269C0.683877 7.39108 0.67233 7.87104 0.999263 8.07539L15.2589 16.9884C16.0022 17.453 16.9599 17.3877 17.6333 16.8265L28.0564 8.13986C28.3441 7.90013 28.2818 7.44205 27.9405 7.28792L13.8872 0.940737C13.3003 0.675673 12.6224 0.704941 12.0606 1.0196Z" fill="#FF9228" stroke="#FFF5F3" stroke-width="1.5" stroke-linecap="round"/>
<path d="M23.0989 19.2891C16.7599 20.6418 11.177 20.642 4.83801 19.2891" stroke="#FFF5F3" stroke-width="1.5"/>
<path d="M15.7438 7.11413C15.7438 7.81465 15.176 8.38242 14.4757 8.38242C13.7754 8.38242 13.2076 7.81465 13.2076 7.11413C13.2076 6.41362 13.7754 5.84585 14.4757 5.84585C15.176 5.84585 15.7438 6.41362 15.7438 7.11413Z" stroke="#FFF5F3" stroke-width="1.5"/>
<path d="M15.9974 7.62121L24.6206 10.1369" stroke="#FFF5F3" stroke-width="1.5" stroke-linecap="round"/>
<mask id="path-6-inside-1_1_1322" fill="white">
<path d="M25.1358 9.57812L23.8082 10.6917V15.0683C23.8082 15.4349 24.1054 15.7321 24.472 15.7321C24.8386 15.7321 25.1358 15.4349 25.1358 15.0683V9.57812Z"/>
</mask>
<path d="M23.8082 10.6917L22.8303 9.5258L22.2865 9.98193V10.6917H23.8082ZM25.1358 9.57812H26.6575V6.31547L24.1578 8.41223L25.1358 9.57812ZM24.7862 11.8576L26.1138 10.744L24.1578 8.41223L22.8303 9.5258L24.7862 11.8576ZM23.6141 9.57812V15.0683H26.6575V9.57812H23.6141ZM25.33 15.0683V10.6917H22.2865V15.0683H25.33ZM24.472 14.2103C24.9459 14.2103 25.33 14.5945 25.33 15.0683H22.2865C22.2865 16.2753 23.265 17.2538 24.472 17.2538V14.2103ZM23.6141 15.0683C23.6141 14.5945 23.9982 14.2103 24.472 14.2103V17.2538C25.6791 17.2538 26.6575 16.2753 26.6575 15.0683H23.6141Z" fill="#FF9228" mask="url(#path-6-inside-1_1_1322)"/>
</svg>
