<svg width="145" height="144" viewBox="0 0 145 144" fill="none" xmlns="http://www.w3.org/2000/svg">
<path opacity="0.3" d="M143.652 30.3498C140.801 37.5659 136.269 18.2628 129.053 15.4123C121.837 12.5619 103.804 13.7806 106.655 6.56449C109.505 -0.651616 130.536 -1.26464 137.752 1.58583C144.968 4.43631 146.502 23.1336 143.652 30.3498Z" fill="#03A9F4"/>
<circle opacity="0.1" cx="130.449" cy="137.779" r="6.02073" fill="#03A9F4"/>
<circle opacity="0.1" cx="120.415" cy="28.402" r="6.02073" fill="#03A9F4"/>
<circle opacity="0.1" cx="6.02073" cy="66.5333" r="6.02073" fill="#03A9F4"/>
<rect x="85.0355" y="31.0047" width="64.7739" height="86.3651" rx="18" transform="rotate(30 85.0355 31.0047)" fill="#FFEBCC"/>
<circle opacity="0.1" cx="42.1451" cy="121.723" r="11.038" fill="#03A9F4"/>
<rect x="39.1347" y="36.4296" width="72.2488" height="96.3317" rx="18" fill="#FFB237"/>
<circle opacity="0.1" cx="97.8369" cy="51.9831" r="17.5605" fill="#301008"/>
<circle cx="101.851" cy="46.9658" r="17.5605" fill="#FFF6F4"/>
<path d="M108.289 43.9393L100.673 51.556L96.1203 47.0038" stroke="#39B070" stroke-width="2" stroke-linecap="round"/>
<rect x="50.1728" y="51.4814" width="19.0656" height="19.0656" rx="5" fill="white"/>
<path d="M52.1797 85.5988H99.8438" stroke="white" stroke-width="5"/>
<path d="M52.1797 98.6438H99.8438" stroke="white" stroke-width="5"/>
<path d="M52.1797 111.689L78.2695 111.689" stroke="white" stroke-width="5"/>
<path d="M120.576 69.2953C122.047 68.8214 123.479 70.1171 123.154 71.6275L122.606 74.1762C122.281 75.6866 120.443 76.279 119.297 75.2425L117.364 73.4934C116.219 72.4569 116.625 70.5689 118.095 70.095L120.576 69.2953Z" fill="#FBCBCB"/>
<path d="M26.5449 130.572C27.2801 130.335 27.9961 130.983 27.8337 131.738L27.3189 134.132C27.1565 134.887 26.2374 135.183 25.6646 134.665L23.8488 133.022C23.276 132.504 23.479 131.56 24.2142 131.323L26.5449 130.572Z" fill="#FBCBCB"/>
<path d="M45.6105 25.2093C46.3458 24.9724 47.0618 25.6202 46.8994 26.3754L46.3845 28.7693C46.2221 29.5245 45.3031 29.8207 44.7303 29.3025L42.9145 27.6596C42.3416 27.1414 42.5447 26.1974 43.2799 25.9604L45.6105 25.2093Z" fill="#FBCBCB"/>
</svg>
