<svg width="23" height="22" viewBox="0 0 23 22" fill="none" xmlns="http://www.w3.org/2000/svg">
<path d="M7.46236 10.6207C7.46236 8.52586 9.16056 6.82766 11.2554 6.82766C13.3502 6.82766 15.0484 8.52586 15.0484 10.6207C15.0484 12.7155 13.3502 14.4137 11.2554 14.4137C9.16056 14.4137 7.46236 12.7155 7.46236 10.6207Z" stroke="#60778C" stroke-width="1.5"/>
<mask id="path-2-inside-1_1_185" fill="white">
<path fill-rule="evenodd" clip-rule="evenodd" d="M22.5109 10.6207C20.7103 15.0689 16.3493 18.2068 11.2554 18.2068C6.16157 18.2068 1.80059 15.0689 0 10.6207C1.80059 6.17248 6.16157 3.03462 11.2554 3.03462C16.3493 3.03462 20.7103 6.17248 22.5109 10.6207Z"/>
</mask>
<path d="M22.5109 10.6207L23.9172 11.19L24.1477 10.6207L23.9172 10.0514L22.5109 10.6207ZM0 10.6207L-1.40636 10.0514L-1.6368 10.6207L-1.40636 11.19L0 10.6207ZM21.1045 10.0514C19.5279 13.9464 15.7102 16.6896 11.2554 16.6896V19.724C16.9884 19.724 21.8927 16.1914 23.9172 11.19L21.1045 10.0514ZM11.2554 16.6896C6.8007 16.6896 2.98302 13.9464 1.40636 10.0514L-1.40636 11.19C0.618171 16.1914 5.52245 19.724 11.2554 19.724V16.6896ZM1.40636 11.19C2.98302 7.29499 6.8007 4.55183 11.2554 4.55183V1.5174C5.52245 1.5174 0.618171 5.04996 -1.40636 10.0514L1.40636 11.19ZM11.2554 4.55183C15.7102 4.55183 19.5279 7.29499 21.1045 11.19L23.9172 10.0514C21.8927 5.04997 16.9884 1.5174 11.2554 1.5174V4.55183Z" fill="#60778C" mask="url(#path-2-inside-1_1_185)"/>
<path d="M15.0484 0.758793L7.46236 21.2412" stroke="#60778C" stroke-width="1.5" stroke-linecap="round"/>
<path d="M16.258 0.758793L8.67189 21.2412" stroke="white" stroke-width="1.5" stroke-linecap="round"/>
</svg>
