<svg width="20" height="21" viewBox="0 0 20 21" fill="none" xmlns="http://www.w3.org/2000/svg">
<path d="M16.9167 12.8184V18.1084C16.9167 18.7988 16.357 19.3584 15.6667 19.3584H12.4167V15.2104C12.4167 14.2439 11.6332 13.4604 10.6667 13.4604H9.33333C8.36683 13.4604 7.58333 14.2439 7.58333 15.2104V19.3584H4.33333C3.64298 19.3584 3.08333 18.7988 3.08333 18.1084V12.8184C3.08333 12.3727 2.72206 12.0115 2.27642 12.0115H2.25219C1.42255 12.0115 0.75 11.3389 0.75 10.5093C0.75 10.1235 0.898378 9.7526 1.1644 9.47328L9.10259 1.13818C9.59338 0.622854 10.4147 0.620649 10.9083 1.13333L18.8091 9.34045C19.092 9.63432 19.25 10.0264 19.25 10.4343V10.485C19.25 11.3281 18.5666 12.0115 17.7236 12.0115C17.2779 12.0115 16.9167 12.3727 16.9167 12.8184Z" stroke="#A49EB5" stroke-width="1.5"/>
</svg>
