<svg width="21" height="22" viewBox="0 0 21 22" fill="none" xmlns="http://www.w3.org/2000/svg">
<path d="M4.21997 14.6497L3.94579 14.7944L3.94575 19.3575L9.27095 21.118C10.5338 21.5356 11.9015 21.5064 13.1447 21.0356L20.1902 18.367C20.735 18.1607 21.0658 17.6065 20.989 17.0289C20.8892 16.2793 20.1542 15.7869 19.4231 15.9799L11.5467 18.0593L13.9125 17.2164C14.533 16.9953 14.9143 16.3707 14.8274 15.7176C14.7596 15.2077 14.2912 14.849 13.7812 14.9164L11.6062 15.2038C10.802 15.31 9.98425 15.1722 9.259 14.8081L8.85127 14.6035C7.39003 13.87 5.66497 13.8872 4.21997 14.6497Z" fill="#FF9228"/>
<path d="M0.758758 15.5294V19.152C0.758758 20.1298 1.55141 20.9224 2.52919 20.9224H2.93387C3.91165 20.9224 4.7043 20.1298 4.7043 19.152V15.5294C4.7043 14.5516 3.91165 13.7589 2.93387 13.7589H2.52919C1.55141 13.7589 0.758758 14.5516 0.758758 15.5294Z" fill="#FF9228" stroke="#FFF4E9" stroke-width="1.5" stroke-linecap="round"/>
<path fill-rule="evenodd" clip-rule="evenodd" d="M5.03988 1.36372C3.21534 3.182 3.21534 6.13003 5.03988 7.94832L8.42217 11.319C9.16619 12.0605 10.1431 12.4284 11.1182 12.4229C12.0934 12.4284 13.0703 12.0605 13.8143 11.319L17.1966 7.94832C19.0211 6.13003 19.0211 3.182 17.1966 1.36372C15.5394 -0.287798 12.947 -0.439275 11.1182 0.909283C9.28948 -0.439275 6.69708 -0.287798 5.03988 1.36372Z" fill="#FF9228"/>
<path d="M2.32665 5.7664H6.77804L8.26183 4.31458L11.0854 8.06512L14.053 3.22571L15.9077 5.7664H20.1322" stroke="#FFF4E9" stroke-width="1.5" stroke-linecap="round"/>
</svg>
