<svg width="27" height="24" viewBox="0 0 27 24" fill="none" xmlns="http://www.w3.org/2000/svg">
<path fill-rule="evenodd" clip-rule="evenodd" d="M8.3417e-05 11.7936C-0.00339161 11.4516 0.0948625 11.1226 0.273231 10.8789C0.4516 10.6353 0.695472 10.4969 0.951198 10.4943L23.6932 10.2632L17.542 2.21115C17.3585 1.97085 17.2534 1.64347 17.2499 1.30104C17.2465 0.958599 17.3448 0.629154 17.5234 0.385175C17.702 0.141196 17.9462 0.00266784 18.2023 6.61973e-05C18.4583 -0.00253546 18.7053 0.131002 18.8888 0.371302L26.7073 10.6092C26.7983 10.7281 26.871 10.8696 26.9212 11.0258C26.9714 11.182 26.9982 11.3497 26.9999 11.5193C27.0016 11.6889 26.9783 11.8571 26.9313 12.0143C26.8843 12.1714 26.8145 12.3145 26.7259 12.4352L19.117 22.8298C18.9384 23.0738 18.6942 23.2123 18.4381 23.2149C18.1821 23.2175 17.9352 23.084 17.7516 22.8437C17.5681 22.6034 17.4631 22.276 17.4596 21.9336C17.4561 21.5911 17.5545 21.2617 17.7331 21.0177L23.7194 12.8423L0.977403 13.0734C0.721677 13.076 0.475044 12.9426 0.291761 12.7026C0.108478 12.4626 0.00355845 12.1356 8.3417e-05 11.7936Z" fill="white"/>
</svg>
