<svg width="22" height="21" viewBox="0 0 22 21" fill="none" xmlns="http://www.w3.org/2000/svg">
<rect x="0.419774" width="21.0002" height="21.0002" rx="4" fill="#FF9228"/>
<path d="M0 6.04247L21.8079 6.04247" stroke="#FFF4E9" stroke-width="1.5"/>
<path d="M12.1155 2.81147L17.435 2.81147" stroke="#FFF4E9" stroke-width="1.5" stroke-linecap="round"/>
<ellipse cx="4.14333" cy="2.76119" rx="0.757219" ry="0.757219" fill="#FFF4E9"/>
<ellipse cx="6.66757" cy="2.76119" rx="0.757219" ry="0.757219" fill="#FFF4E9"/>
<ellipse cx="9.19129" cy="2.76119" rx="0.757219" ry="0.757219" fill="#FFF4E9"/>
<path d="M14.3096 10.0636C14.9612 10.7152 14.9612 11.7716 14.3096 12.4232L10.9891 15.7438C10.6476 16.0852 10.1985 16.298 9.71799 16.346L8.14664 16.5029C7.98798 16.5187 7.85456 16.3853 7.8704 16.2266L8.02729 14.6553C8.07527 14.1748 8.28805 13.7256 8.62951 13.3842L11.9501 10.0636C12.6016 9.41205 13.6581 9.41206 14.3096 10.0636Z" stroke="#FFF4E9" stroke-width="1.5"/>
</svg>
