<svg width="17" height="22" viewBox="0 0 17 22" fill="none" xmlns="http://www.w3.org/2000/svg">
<circle cx="8.16037" cy="19.2788" r="1.3377" transform="rotate(1.70614 8.16037 19.2788)" stroke="white" stroke-width="1.5"/>
<path d="M3.51785 5.67022C3.86085 3.36966 5.83683 1.6672 8.16281 1.66821C10.4885 1.66923 12.4629 3.37301 12.8042 5.67353L13.2385 8.60069C13.4995 10.6114 14.2143 12.0728 15.316 13.5969C15.8715 14.3654 15.3279 15.3219 14.534 15.3216L1.75464 15.3169C0.958494 15.3166 0.432965 14.3713 0.985698 13.6237C2.1212 12.0877 2.87442 10.6178 3.08307 8.58642L3.51785 5.67022Z" stroke="white" stroke-width="1.5"/>
<circle cx="13.1444" cy="3.85556" r="3.85554" transform="rotate(1.70614 13.1444 3.85556)" fill="#FC4646"/>
<path d="M14.3037 5.37886H11.8491V4.94L12.7888 3.9879C12.9706 3.80277 13.1202 3.64326 13.2376 3.50937C13.3549 3.37383 13.4417 3.24573 13.4979 3.12506C13.5558 3.0044 13.5847 2.87299 13.5847 2.73084C13.5847 2.55562 13.5343 2.42339 13.4334 2.33413C13.3326 2.24322 13.1996 2.19776 13.0343 2.19776C12.8772 2.19776 12.7318 2.22917 12.5979 2.29198C12.4656 2.35314 12.3284 2.44074 12.1863 2.5548L11.8665 2.17049C11.9673 2.08453 12.0747 2.00602 12.1888 1.93494C12.3045 1.86386 12.4334 1.80766 12.5756 1.76634C12.7177 1.72336 12.8797 1.70188 13.0615 1.70188C13.2913 1.70188 13.4896 1.7432 13.6566 1.82585C13.8235 1.90684 13.9516 2.02007 14.0409 2.16553C14.1318 2.31099 14.1773 2.48041 14.1773 2.67381C14.1773 2.86886 14.1384 3.04903 14.0607 3.21432C13.983 3.37962 13.8723 3.54326 13.7285 3.70525C13.5847 3.86558 13.4136 4.03997 13.2153 4.22841L12.588 4.84082V4.8681H14.3037V5.37886Z" fill="white"/>
</svg>
