<svg width="28" height="29" viewBox="0 0 28 29" fill="none" xmlns="http://www.w3.org/2000/svg">
<path d="M13.9981 12.9657C7.81337 12.9657 2.79966 17.5236 2.79966 23.1461H25.1965C25.1965 17.5236 20.1828 12.9657 13.9981 12.9657Z" fill="#FF9228"/>
<rect x="0.763527" y="23.1463" width="26.469" height="5.09019" rx="2.5" fill="#FF9228" stroke="#FFF5F3" stroke-width="1.5"/>
<circle cx="13.998" cy="10.9299" r="2.03608" fill="#FF9228"/>
<path d="M10.5162 1.7818C10.5162 1.7818 9.02138 2.3418 9.58138 3.8366C10.1414 5.33139 8.55053 6.24987 8.19206 6.15382" stroke="#FF9228" stroke-width="1.5" stroke-linecap="round"/>
<path d="M15.6064 0.763764C15.6064 0.763764 14.1116 1.32377 14.6716 2.81856C15.2316 4.31336 13.6407 5.23184 13.2822 5.13578" stroke="#FF9228" stroke-width="1.5" stroke-linecap="round"/>
<path d="M20.697 1.7818C20.697 1.7818 19.2022 2.3418 19.7622 3.8366C20.3222 5.33139 18.7314 6.24987 18.3729 6.15382" stroke="#FF9228" stroke-width="1.5" stroke-linecap="round"/>
</svg>
