<svg width="198" height="196" viewBox="0 0 198 196" fill="none" xmlns="http://www.w3.org/2000/svg">
<circle opacity="0.1" cx="5" cy="5" r="5" transform="matrix(1.00173 0 0 -1.00173 152.67 84.8075)" fill="#27308C"/>
<circle opacity="0.2" cx="3" cy="3" r="3" transform="matrix(1.00173 0 0 -1.00173 68.5245 196)" fill="#27308C"/>
<mask id="mask0_1_3125" style="mask-type:alpha" maskUnits="userSpaceOnUse" x="18" y="12" width="95" height="95">
<rect x="13.4291" y="36.3398" width="80.1387" height="80.1387" rx="16" transform="rotate(-20.959 13.4291 36.3398)" fill="#FFC467"/>
</mask>
<g mask="url(#mask0_1_3125)">
<rect x="13.4291" y="36.3398" width="80.1387" height="80.1387" rx="16" transform="rotate(-20.959 13.4291 36.3398)" fill="#FFC467"/>
<path opacity="0.15" d="M38.3015 59.405C37.5712 49.4734 45.0303 40.8303 54.9619 40.1L114.904 35.6922C124.836 34.9619 133.479 42.421 134.209 52.3526L141.371 149.747C141.712 154.387 136.877 157.639 132.708 155.573L92.1066 135.452L54.8853 161.295C51.063 163.949 45.8044 161.44 45.4632 156.799L38.3015 59.405Z" fill="#151A53"/>
<path opacity="0.15" d="M23.053 28.3658C21.9037 25.5034 24.284 22.4702 27.3376 22.9061L35.9258 24.132C38.9794 24.5679 40.416 28.1459 38.5118 30.5724L33.156 37.3971C31.2517 39.8237 27.4347 39.2788 26.2854 36.4164L23.053 28.3658Z" fill="#151A53"/>
</g>
<path opacity="0.1" d="M81.2554 71.5932C82.7038 61.7407 91.865 54.9279 101.717 56.3764L161.182 65.1185C171.035 66.567 177.848 75.7282 176.399 85.5807L162.195 182.199C161.518 186.803 156.091 188.924 152.472 186L117.222 157.527L75.2689 174.651C70.9607 176.409 66.3743 172.815 67.0511 168.212L81.2554 71.5932Z" fill="#5665FF"/>
<path d="M43.3102 58.4032C42.5799 48.4717 50.039 39.8285 59.9705 39.0982L119.913 34.6905C129.844 33.9602 138.487 41.4193 139.218 51.3509L146.379 148.745C146.721 153.386 141.886 156.637 137.716 154.571L97.1152 134.45L59.894 160.294C56.0717 162.947 50.8131 160.438 50.4719 155.797L43.3102 58.4032Z" fill="#3747E9"/>
<path d="M24.0342 25.3406C22.8848 22.4781 25.2652 19.445 28.3188 19.8808L36.907 21.1067C39.9606 21.5426 41.3972 25.1206 39.493 27.5472L34.1372 34.3719C32.2329 36.7984 28.4159 36.2536 27.2666 33.3911L24.0342 25.3406Z" fill="#FF9E87"/>
<path d="M0.309405 141.275C-0.898386 138.267 1.60306 135.079 4.81201 135.537C8.02096 135.995 9.5307 139.755 7.52954 142.305C5.52838 144.855 1.5172 144.283 0.309405 141.275Z" fill="#FF9E87"/>
<path d="M182.089 117.863C179.74 112.014 184.604 105.815 190.844 106.706C197.084 107.597 200.02 114.909 196.129 119.867C192.237 124.826 184.437 123.712 182.089 117.863Z" fill="#FF9E87"/>
<path d="M133.963 185.449C131.799 183.25 132.827 179.534 135.813 178.76L144.21 176.582C147.196 175.807 149.9 178.555 149.078 181.528L146.765 189.89C145.943 192.863 142.211 193.831 140.048 191.632L133.963 185.449Z" fill="#FFE1DA"/>
<path d="M74.6841 61.6209L109.65 59.0497" stroke="white" stroke-width="3"/>
<path opacity="0.3" d="M169.459 30.2975C166.614 37.5013 162.089 18.2313 154.885 15.3857C147.682 12.5401 129.68 13.7568 132.525 6.55306C135.371 -0.650678 156.365 -1.26265 163.569 1.58293C170.773 4.42852 172.305 23.0938 169.459 30.2975Z" fill="#3F13E4"/>
</svg>
