<svg width="23" height="24" viewBox="0 0 23 24" fill="none" xmlns="http://www.w3.org/2000/svg">
<path d="M11.5 10.6634C6.48734 10.6634 2.42377 14.3575 2.42377 18.9145H20.5762C20.5762 14.3575 16.5127 10.6634 11.5 10.6634Z" fill="#FF9228"/>
<rect x="0.773541" y="18.9145" width="21.4529" height="4.12556" rx="2" fill="#FF9228" stroke="#FFF4E9" stroke-width="1.5"/>
<circle cx="11.4999" cy="9.01347" r="1.65022" fill="#FF9228"/>
<path d="M8.67795 1.59905C8.67795 1.59905 7.46643 2.05292 7.92031 3.26444C8.37419 4.47596 7.08482 5.22038 6.79427 5.14253" stroke="#FF9228" stroke-width="1.5" stroke-linecap="round"/>
<path d="M12.8035 0.773633C12.8035 0.773633 11.592 1.22751 12.0459 2.43903C12.4997 3.65055 11.2104 4.39497 10.9198 4.31712" stroke="#FF9228" stroke-width="1.5" stroke-linecap="round"/>
<path d="M16.9293 1.59905C16.9293 1.59905 15.7178 2.05292 16.1717 3.26444C16.6255 4.47596 15.3362 5.22038 15.0456 5.14253" stroke="#FF9228" stroke-width="1.5" stroke-linecap="round"/>
</svg>
