<svg width="20" height="21" viewBox="0 0 20 21" fill="none" xmlns="http://www.w3.org/2000/svg">
<path d="M16.9167 12.8179V18.1079C16.9167 18.7983 16.357 19.3579 15.6667 19.3579H12.4167V15.2099C12.4167 14.2435 11.6332 13.46 10.6667 13.46H9.33333C8.36683 13.46 7.58333 14.2435 7.58333 15.21V19.3579H4.33333C3.64298 19.3579 3.08333 18.7983 3.08333 18.1079V12.8179C3.08333 12.3722 2.72206 12.011 2.27642 12.011H2.25219C1.42255 12.011 0.75 11.3384 0.75 10.5088C0.75 10.1231 0.898378 9.75211 1.1644 9.47279L9.10259 1.13769C9.59338 0.622365 10.4147 0.62016 10.9083 1.13284L18.8091 9.33996C19.092 9.63383 19.25 10.0259 19.25 10.4338V10.4845C19.25 11.3276 18.5666 12.011 17.7236 12.011C17.2779 12.011 16.9167 12.3722 16.9167 12.8179Z" stroke="#7551FF" stroke-width="1.5"/>
</svg>
