<svg width="138" height="172" viewBox="0 0 138 172" fill="none" xmlns="http://www.w3.org/2000/svg">
<rect x="13.0291" width="71.0744" height="93.0974" rx="16" fill="#FF9228"/>
<rect opacity="0.2" x="47.6117" y="-5.00524" width="71.0744" height="93.0974" rx="16" transform="rotate(25.1651 47.6117 -5.00524)" fill="#FF9228"/>
<rect x="23.0396" y="12.0126" width="21.022" height="21.022" rx="6" fill="white"/>
<path d="M26.0427 48.0503H71.0899" stroke="white" stroke-width="5" stroke-linecap="square"/>
<path d="M26.0427 63.066H71.0899" stroke="white" stroke-width="5" stroke-linecap="square"/>
<path d="M26.0427 78.0817H54.0721" stroke="white" stroke-width="5" stroke-linecap="square"/>
<circle cx="78.0491" cy="93.3698" r="22.3327" transform="rotate(28.6511 78.0491 93.3698)" fill="#423273" stroke="#8A7AB8" stroke-width="8"/>
<path d="M67.2195 113.739L59.4954 127.876" stroke="#8A7AB8" stroke-width="8" stroke-linecap="round"/>
<path d="M65.4886 117.222L62.5629 137.757L49.4275 130.786L65.4886 117.222Z" fill="#8A7AB8"/>
<path d="M46.9331 135.423L59.9337 142.322L52.3628 155.919C50.3856 159.47 45.8724 160.804 42.2824 158.899C38.6924 156.993 37.385 152.57 39.3622 149.019L46.9331 135.423Z" fill="#3F2787"/>
<path d="M83.3047 88.4104L73.0403 99.1698" stroke="white" stroke-width="5" stroke-linecap="round"/>
<path d="M72.7932 88.6577L83.5526 98.9221" stroke="white" stroke-width="5" stroke-linecap="round"/>
<circle opacity="0.1" cx="4.2038" cy="4.2038" r="4.2038" transform="matrix(1.00105 0 0 -1.00105 100.497 57.537)" fill="#27308C"/>
<circle opacity="0.2" cx="2.52228" cy="2.52228" r="2.52228" transform="matrix(1.00105 0 0 -1.00105 29.7991 172)" fill="#27308C"/>
<path d="M2.93024 33.8481C1.78171 30.9876 4.16042 27.9565 7.21192 28.3921L12.2409 29.11C15.2924 29.5455 16.7281 33.1211 14.8251 35.546L11.6889 39.5423C9.78597 41.9672 5.9716 41.4227 4.82307 38.5623L2.93024 33.8481Z" fill="#FF9E87"/>
<path d="M0.259891 115.08C-0.754873 112.553 1.3468 109.875 4.0429 110.259C6.739 110.644 8.00746 113.803 6.32612 115.946C4.64478 118.088 1.27465 117.607 0.259891 115.08Z" fill="#FF9E87"/>
<path d="M124.372 95.4099C122.399 90.4954 126.486 85.2877 131.729 86.0361C136.971 86.7844 139.438 92.9275 136.168 97.0937C132.899 101.26 126.346 100.324 124.372 95.4099Z" fill="#FF9E87"/>
<path opacity="0.2" d="M92.2869 144.565C90.1248 142.368 91.1519 138.655 94.1356 137.881L99.0529 136.605C102.037 135.831 104.739 138.578 103.917 141.549L102.563 146.445C101.742 149.416 98.0121 150.383 95.85 148.186L92.2869 144.565Z" fill="#FF9E87"/>
<path opacity="0.3" d="M131.11 36.3281C127.472 41.7237 127.246 25.0947 121.85 21.4567C116.455 17.8186 101.464 15.5599 105.102 10.1643C108.74 4.76865 126.076 8.06486 131.472 11.7029C136.868 15.3409 134.748 30.9324 131.11 36.3281Z" fill="#03A9F4"/>
</svg>
