<svg width="234" height="240" viewBox="0 0 234 240" fill="none" xmlns="http://www.w3.org/2000/svg">
<rect x="8.30914" y="62.9508" width="6.37828" height="6.37828" rx="3.18047" transform="rotate(159.041 8.30914 62.9508)" stroke="#9E9FA9" stroke-width="2"/>
<mask id="mask0_1_2679" style="mask-type:alpha" maskUnits="userSpaceOnUse" x="4" y="71" width="71" height="71">
<rect x="-0.218103" y="88.592" width="61.1291" height="61.1291" rx="16" transform="rotate(-20.959 -0.218103 88.592)" fill="#FFC467"/>
</mask>
<g mask="url(#mask0_1_2679)">
<rect x="-0.218103" y="88.592" width="61.1291" height="61.1291" rx="16" transform="rotate(-20.959 -0.218103 88.592)" fill="#FFC467"/>
<rect opacity="0.15" x="27.0576" y="80.6028" width="145.301" height="91.1887" rx="20" transform="rotate(-4.49304 27.0576 80.6028)" fill="#151B5E"/>
</g>
<rect opacity="0.2" x="51.7919" y="78.7508" width="145.301" height="91.1887" rx="20" transform="rotate(8.15099 51.7919 78.7508)" fill="#5665FF"/>
<rect x="32.0679" y="78.5987" width="145.301" height="91.1887" rx="20" transform="rotate(-4.49304 32.0679 78.5987)" fill="#3747E9"/>
<path opacity="0.11" d="M34.1085 104.572C33.2414 93.5378 41.4838 83.8896 52.5184 83.0225L157.413 74.78C168.447 73.9129 178.096 82.1552 178.963 93.1898L179.198 96.1868L115.367 124.903C111.129 126.81 106.361 127.184 101.877 125.963L34.344 107.569L34.1085 104.572Z" fill="#5B5B5B"/>
<path d="M33.6378 98.5785C32.7707 87.544 41.0131 77.8957 52.0477 77.0287L156.942 68.7861C167.977 67.919 177.625 76.1614 178.492 87.196L178.884 92.1909L112.591 114.291C109.491 115.324 106.185 115.584 102.962 115.047L34.0303 103.574L33.6378 98.5785Z" fill="#949EFF"/>
<circle opacity="0.2" cx="3" cy="3" r="3" transform="matrix(1.00207 0 0 -1.00207 98.9872 221.045)" fill="#27308C"/>
<path d="M54.4818 50.3281C53.3321 47.4647 55.7132 44.4305 58.7679 44.8665L67.359 46.0928C70.4136 46.5288 71.8507 50.1081 69.9458 52.5354L64.5882 59.3624C62.6833 61.7898 58.865 61.2448 57.7153 58.3814L54.4818 50.3281Z" fill="#FF9E87"/>
<path d="M30.749 166.302C29.5408 163.293 32.0431 160.104 35.2532 160.562C38.4632 161.021 39.9734 164.782 37.9716 167.333C35.9698 169.884 31.9572 169.311 30.749 166.302Z" fill="#FF9E87"/>
<path d="M212.59 142.882C210.24 137.031 215.106 130.831 221.348 131.722C227.59 132.613 230.527 139.927 226.635 144.887C222.742 149.847 214.939 148.734 212.59 142.882Z" fill="#FF9E87"/>
<path opacity="0.2" d="M164.447 210.491C162.283 208.292 163.311 204.574 166.298 203.8L174.698 201.621C177.685 200.846 180.39 203.595 179.568 206.569L177.255 214.933C176.432 217.907 172.699 218.876 170.534 216.676L164.447 210.491Z" fill="#FF9E87"/>
<path opacity="0.3" d="M199.956 55.2867C197.109 62.4929 192.583 43.2164 185.377 40.3699C178.171 37.5233 160.163 38.7404 163.009 31.5342C165.856 24.328 186.858 23.7159 194.064 26.5624C201.27 29.409 202.802 48.0805 199.956 55.2867Z" fill="#03A9F4"/>
<path d="M133.841 1.96381C131.599 1.01582 126.038 0.900981 121.725 8.02551C117.412 15.15 111.043 15.4393 108.398 14.6934" stroke="#FF83CC" stroke-width="3" stroke-linecap="round"/>
<path d="M43.5314 238.496C43.2842 237.623 42.0488 236.034 39.0852 236.669C36.1216 237.304 34.5897 235.594 34.1943 234.659" stroke="#FF83CC" stroke-width="3" stroke-linecap="round"/>
<path d="M222.259 191.13C221.92 192.531 222.39 195.693 226.986 197.125C231.582 198.557 232.367 202.118 232.186 203.72" stroke="#FF83CC" stroke-width="3" stroke-linecap="round"/>
</svg>
