<svg width="20" height="12" viewBox="0 0 20 12" fill="none" xmlns="http://www.w3.org/2000/svg">
<path d="M19.2389 6.36602C19.6593 6.36602 20 6.02528 20 5.60495C20 5.18462 19.6593 4.84388 19.2389 4.84388V6.36602ZM0.222911 5.06679C-0.0743037 5.36401 -0.0743037 5.84589 0.222911 6.14311L5.06632 10.9865C5.36354 11.2837 5.84542 11.2837 6.14263 10.9865C6.43985 10.6893 6.43985 10.2074 6.14263 9.9102L1.83738 5.60495L6.14263 1.2997C6.43985 1.00248 6.43985 0.520601 6.14263 0.223385C5.84542 -0.0738305 5.36354 -0.0738305 5.06632 0.223385L0.222911 5.06679ZM19.2389 4.84388L0.761068 4.84388V6.36602L19.2389 6.36602V4.84388Z" fill="#3B4657"/>
</svg>
