<svg width="26" height="27" viewBox="0 0 26 27" fill="none" xmlns="http://www.w3.org/2000/svg">
<path d="M5.49838 18.099L4.57536 18.5861L4.57532 24.3185L11.3207 26.5486C12.8713 27.0612 14.5506 27.0255 16.0771 26.4473L24.9827 23.0742C25.6671 22.815 26.0827 22.1188 25.9861 21.3932C25.8609 20.4515 24.9374 19.8329 24.019 20.0753L14.1241 22.6877L17.0962 21.6288C17.8757 21.351 18.3547 20.5663 18.2456 19.7459C18.1603 19.1053 17.5719 18.6547 16.9313 18.7393L13.8888 19.1414C13.0806 19.2481 12.2587 19.1096 11.5298 18.7437L10.1529 18.0526C8.68433 17.3154 6.95062 17.3327 5.49838 18.099Z" fill="#FF9228"/>
<path d="M0.762562 19.2554V24.3148C0.762562 25.2975 1.55919 26.0941 2.54187 26.0941H3.55862C4.54131 26.0941 5.33794 25.2975 5.33794 24.3148V19.2554C5.33794 18.2728 4.54131 17.4761 3.55862 17.4761H2.54187C1.55919 17.4761 0.762562 18.2728 0.762562 19.2554Z" fill="#FF9228" stroke="#FFF5F3" stroke-width="1.5" stroke-linecap="round"/>
<path fill-rule="evenodd" clip-rule="evenodd" d="M5.95041 1.71319C3.6583 3.99744 3.6583 7.70095 5.95041 9.98521L10.6784 14.697C11.4809 15.4967 12.5347 15.893 13.5864 15.8861C14.638 15.893 15.6919 15.4967 16.4943 14.697L21.2223 9.98521C23.5145 7.70095 23.5145 3.99744 21.2223 1.71319C19.1405 -0.361532 15.8838 -0.551843 13.5864 1.14226C11.289 -0.551843 8.03227 -0.361532 5.95041 1.71319Z" fill="#FF9228"/>
<path d="M2.54138 7.24488H8.1335L9.99754 5.421L13.5447 10.1327L17.2728 4.0531L19.6028 7.24488H24.9099" stroke="#FFF5F3" stroke-width="1.5" stroke-linecap="round"/>
</svg>
