<svg width="198" height="196" viewBox="0 0 198 196" fill="none" xmlns="http://www.w3.org/2000/svg">
<rect x="23.4463" y="55.5775" width="61.1083" height="61.1083" rx="16" transform="rotate(-20.959 23.4463 55.5775)" fill="#FFC467"/>
<circle cx="87.528" cy="142.879" r="6.63647" transform="rotate(-13.2939 87.528 142.879)" fill="#19216F"/>
<path opacity="0.1" fill-rule="evenodd" clip-rule="evenodd" d="M89.158 60.1575C89.1335 59.7986 89.0795 59.437 88.994 59.0754C88.1512 55.5084 84.5764 53.2999 81.0094 54.1428C77.4424 54.9856 75.234 58.5604 76.0768 62.1274C76.1125 62.2786 76.1531 62.4274 76.1985 62.5736C66.8416 67.3333 61.5329 78.0198 64.0495 88.6711L66.8387 100.476C67.0287 101.768 67.1634 103.018 67.2463 104.235L102.082 91.3363C107.524 89.3213 110.624 83.5788 109.322 77.9235C107.05 68.0541 98.7112 61.1517 89.158 60.1575Z" fill="#151A53"/>
<circle cx="84.5389" cy="59.5994" r="6.63647" transform="rotate(-13.2939 84.5389 59.5994)" fill="#949EFF"/>
<path opacity="0.1" d="M95.668 94.8152C92.4392 82.3403 99.9347 69.61 112.41 66.3813C124.884 63.1525 137.615 70.648 140.843 83.1228L143.866 94.8006C146.579 101.924 150.05 106.963 154.724 111.789C160.414 117.664 158.38 127.605 150.463 129.654L109.71 140.202C101.815 142.245 95.2517 134.604 97.4572 126.753C99.3113 120.153 99.9627 114.029 98.6904 106.493L95.668 94.8152Z" fill="#3847E5"/>
<path d="M68.0718 89.738C65.1088 77.1973 72.8729 64.6291 85.4135 61.6661C97.9541 58.703 110.522 66.4672 113.485 79.0078L116.259 90.7471C118.82 97.9267 122.184 103.038 126.754 107.963C132.318 113.957 130.074 123.852 122.114 125.733L81.1463 135.413C73.2102 137.288 66.8106 129.509 69.1822 121.707C71.1761 115.147 71.9575 109.039 70.8455 101.477L68.0718 89.738Z" fill="#3847E5"/>
<circle opacity="0.1" cx="5" cy="5" r="5" transform="matrix(1.00173 0 0 -1.00173 152.67 84.8078)" fill="#27308C"/>
<circle opacity="0.2" cx="3" cy="3" r="3" transform="matrix(1.00173 0 0 -1.00173 68.5242 196)" fill="#27308C"/>
<path d="M24.034 25.341C22.8847 22.4786 25.265 19.4454 28.3186 19.8813L36.9068 21.1072C39.9604 21.543 41.397 25.1211 39.4927 27.5476L34.137 34.3723C32.2327 36.7988 28.4157 36.254 27.2664 33.3915L24.034 25.341Z" fill="#FF9E87"/>
<path d="M0.309282 141.275C-0.898506 138.267 1.60294 135.079 4.81188 135.537C8.02082 135.995 9.53056 139.755 7.5294 142.305C5.52825 144.855 1.51707 144.283 0.309282 141.275Z" fill="#FF9E87"/>
<path d="M182.088 117.863C179.74 112.014 184.604 105.816 190.844 106.706C197.084 107.597 200.02 114.909 196.128 119.867C192.237 124.826 184.437 123.713 182.088 117.863Z" fill="#FF9E87"/>
<path opacity="0.2" d="M133.962 185.449C131.799 183.25 132.826 179.534 135.812 178.76L144.209 176.582C147.195 175.807 149.9 178.555 149.077 181.528L146.765 189.89C145.943 192.863 142.211 193.831 140.047 191.632L133.962 185.449Z" fill="#FF9E87"/>
<path opacity="0.3" d="M169.459 30.298C166.613 37.5017 162.089 18.2318 154.885 15.3862C147.681 12.5406 129.679 13.7572 132.525 6.55353C135.37 -0.650188 156.365 -1.26216 163.568 1.58342C170.772 4.429 172.304 23.0942 169.459 30.298Z" fill="#03A9F4"/>
</svg>
