<svg width="19" height="20" viewBox="0 0 19 20" fill="none" xmlns="http://www.w3.org/2000/svg">
<mask id="path-1-inside-1_1_5474" fill="white">
<path fill-rule="evenodd" clip-rule="evenodd" d="M0 15.3772C1.7876 18.1579 4.9087 19.9999 8.46003 19.9999C14.0105 19.9999 18.5101 15.5004 18.5101 9.94987C18.5101 4.88295 14.7604 0.691822 9.88453 0C10.8908 1.56536 11.4746 3.42818 11.4746 5.42735C11.4746 10.9778 6.97499 15.4774 1.4245 15.4774C0.94093 15.4774 0.465336 15.4433 0 15.3772Z"/>
</mask>
<path d="M0 15.3772L0.211776 13.8847L-3.04908 13.422L-1.26808 16.1924L0 15.3772ZM9.88453 0L10.0963 -1.49256L6.83546 -1.95523L8.61645 0.815197L9.88453 0ZM8.46003 18.4924C5.44298 18.4924 2.79003 16.9295 1.26808 14.562L-1.26808 16.1924C0.785164 19.3864 4.37442 21.5074 8.46003 21.5074V18.4924ZM17.0026 9.94987C17.0026 14.6678 13.1779 18.4924 8.46003 18.4924V21.5074C14.8431 21.5074 20.0176 16.3329 20.0176 9.94987H17.0026ZM9.67276 1.49256C13.8158 2.08041 17.0026 5.64428 17.0026 9.94987H20.0176C20.0176 4.12163 15.705 -0.696762 10.0963 -1.49256L9.67276 1.49256ZM8.61645 0.815197C9.47113 2.14469 9.96705 3.72581 9.96705 5.42735H12.9821C12.9821 3.13056 12.3105 0.98602 11.1526 -0.815197L8.61645 0.815197ZM9.96705 5.42735C9.96705 10.1453 6.14242 13.9699 1.4245 13.9699V16.9849C7.80757 16.9849 12.9821 11.8104 12.9821 5.42735H9.96705ZM1.4245 13.9699C1.012 13.9699 0.60717 13.9408 0.211776 13.8847L-0.211776 16.8698C0.323502 16.9457 0.869861 16.9849 1.4245 16.9849V13.9699Z" fill="#3D4859" mask="url(#path-1-inside-1_1_5474)"/>
</svg>
