<svg width="141" height="139" viewBox="0 0 141 139" fill="none" xmlns="http://www.w3.org/2000/svg">
<g filter="url(#filter0_d_1_5676)">
<path d="M62.8578 61.1047C62.8578 59.86 63.8668 58.8509 65.1116 58.8509H75.5312C76.776 58.8509 77.785 59.86 77.785 61.1047V69.8813C77.785 71.1261 76.776 72.1352 75.5312 72.1352H65.1116C63.8668 72.1352 62.8578 71.1261 62.8578 69.8813V61.1047Z" stroke="#3E495A" stroke-width="1.5" shape-rendering="crispEdges"/>
</g>
<path d="M62.9279 62.2062H77.7148" stroke="#3E495A" stroke-width="1.5" stroke-linecap="round"/>
<path d="M65.8032 64.6714H66.6247" stroke="#3E495A" stroke-width="1.5" stroke-linecap="round"/>
<path d="M65.8032 67.1366H66.6247" stroke="#3E495A" stroke-width="1.5" stroke-linecap="round"/>
<path d="M65.8032 69.5998H66.6247" stroke="#3E495A" stroke-width="1.5" stroke-linecap="round"/>
<path d="M69.9107 64.6714H70.7322" stroke="#3E495A" stroke-width="1.5" stroke-linecap="round"/>
<path d="M69.9107 67.1366H70.7322" stroke="#3E495A" stroke-width="1.5" stroke-linecap="round"/>
<path d="M69.9107 69.5998H70.7322" stroke="#3E495A" stroke-width="1.5" stroke-linecap="round"/>
<path d="M74.0181 64.6714H74.8396" stroke="#3E495A" stroke-width="1.5" stroke-linecap="round"/>
<path d="M74.0181 67.1366H74.8396" stroke="#3E495A" stroke-width="1.5" stroke-linecap="round"/>
<path d="M74.0181 69.5998H74.8396" stroke="#3E495A" stroke-width="1.5" stroke-linecap="round"/>
<path d="M66.2139 59.9061V57.2779" stroke="#3E495A" stroke-width="1.5" stroke-linecap="round"/>
<path d="M74.4289 59.9061V57.2779" stroke="#3E495A" stroke-width="1.5" stroke-linecap="round"/>
<defs>
<filter id="filter0_d_1_5676" x="0" y="0" width="140.643" height="139" filterUnits="userSpaceOnUse" color-interpolation-filters="sRGB">
<feFlood flood-opacity="0" result="BackgroundImageFix"/>
<feColorMatrix in="SourceAlpha" type="matrix" values="0 0 0 0 0 0 0 0 0 0 0 0 0 0 0 0 0 0 127 0" result="hardAlpha"/>
<feOffset dy="4"/>
<feGaussianBlur stdDeviation="31"/>
<feComposite in2="hardAlpha" operator="out"/>
<feColorMatrix type="matrix" values="0 0 0 0 0.600625 0 0 0 0 0.670375 0 0 0 0 0.775 0 0 0 0.18 0"/>
<feBlend mode="normal" in2="BackgroundImageFix" result="effect1_dropShadow_1_5676"/>
<feBlend mode="normal" in="SourceGraphic" in2="effect1_dropShadow_1_5676" result="shape"/>
</filter>
</defs>
</svg>
