<svg width="18" height="21" viewBox="0 0 18 21" fill="none" xmlns="http://www.w3.org/2000/svg">
<path d="M2.67649 7.30456C2.30292 4.31601 4.63319 1.67631 7.645 1.67631C10.6568 1.67631 12.9871 4.31601 12.6135 7.30456L12.5175 8.07303C12.4377 8.71129 12.514 9.35938 12.7398 9.96166L14.4554 14.5365C14.763 15.3568 14.1566 16.2318 13.2805 16.2318H2.00951C1.13341 16.2318 0.526998 15.3568 0.834617 14.5364L2.55016 9.96166C2.77602 9.35938 2.85233 8.71129 2.77254 8.07303L2.67649 7.30456Z" stroke="#3B4657" stroke-width="1.5"/>
<circle cx="7.645" cy="19.4943" r="1.50574" fill="#3B4657"/>
<path d="M0.842201 1.73611L16.0832 17.0058" stroke="#3B4657" stroke-width="1.5" stroke-linecap="round"/>
<path d="M1.96722 0.752871L17.1793 15.965" stroke="white" stroke-width="1.5" stroke-linecap="round"/>
</svg>
