<svg width="20" height="18" viewBox="0 0 20 18" fill="none" xmlns="http://www.w3.org/2000/svg">
<path d="M4 0.75H16C17.7949 0.75 19.25 2.20507 19.25 4V14C19.25 15.7949 17.7949 17.25 16 17.25H4C2.20507 17.25 0.75 15.7949 0.75 14V4C0.75 2.20507 2.20507 0.75 4 0.75Z" stroke="#FF9228" stroke-width="1.5"/>
<circle cx="5.5" cy="4.5" r="1.5" fill="#FF9228"/>
<path d="M16.916 5.97282L19.25 9.24035V14C19.25 15.7949 17.7949 17.25 16 17.25H4C2.20507 17.25 0.75 15.7949 0.75 14V13.2715L3.4731 10.0038C4.32011 8.98741 5.85703 8.91769 6.79259 9.85325L7.60714 10.6678C8.38802 11.4487 9.68809 11.3199 10.3007 10.4011L13.213 6.03253C14.0865 4.72241 16.0008 4.69154 16.916 5.97282Z" fill="#FF9228" stroke="#FF9228" stroke-width="1.5"/>
</svg>
