<svg width="20" height="12" viewBox="0 0 20 12" fill="none" xmlns="http://www.w3.org/2000/svg">
<path d="M19.2389 6.36552C19.6593 6.36552 20 6.02478 20 5.60446C20 5.18413 19.6593 4.84339 19.2389 4.84339V6.36552ZM0.222909 5.0663C-0.0743057 5.36351 -0.0743057 5.8454 0.222909 6.14261L5.06632 10.986C5.36353 11.2832 5.84542 11.2832 6.14263 10.986C6.43985 10.6888 6.43985 10.2069 6.14263 9.90971L1.83738 5.60446L6.14263 1.2992C6.43985 1.00199 6.43985 0.520106 6.14263 0.22289C5.84542 -0.074326 5.36353 -0.074326 5.06632 0.22289L0.222909 5.0663ZM19.2389 4.84339L0.761066 4.84339V6.36552L19.2389 6.36552V4.84339Z" fill="#0D0140"/>
</svg>
