<svg width="24" height="22" viewBox="0 0 24 22" fill="none" xmlns="http://www.w3.org/2000/svg">
<path d="M16.8246 0H7.14397C5.36181 0 3.91708 1.44473 3.91708 3.22689H20.0515C20.0515 1.44473 18.6068 0 16.8246 0Z" fill="#FF9228"/>
<path d="M1.54715 8.06741V8.82371H2.30346H21.6648H22.4211V8.06741V7.26069C22.4211 4.6153 20.2766 2.47078 17.6312 2.47078H6.33706C3.69167 2.47078 1.54715 4.61529 1.54715 7.26069V8.06741Z" fill="#FF9228" stroke="#FFF4E9" stroke-width="1.5"/>
<rect x="0.762603" y="6.52645" width="22.4748" height="14.4076" rx="4.75" fill="#FF9228" stroke="#FFF4E9" stroke-width="1.5"/>
<path d="M11.8229 10.5302L11.8229 9.72606" stroke="#FFF4E9" stroke-width="1.5" stroke-linecap="round"/>
<path d="M11.8229 17.6442L11.8229 16.84" stroke="#FFF4E9" stroke-width="1.5" stroke-linecap="round"/>
<path d="M13.3193 12.2324C13.3193 11.4225 12.6627 10.766 11.8528 10.766C11.0429 10.766 10.3864 11.4225 10.3864 12.2324C10.3864 13.0423 11.0429 13.6989 11.8528 13.6989" stroke="#FFF4E9" stroke-width="1.5" stroke-linecap="round"/>
<path d="M10.3868 15.1653C10.3868 15.9752 11.0434 16.6317 11.8533 16.6317C12.6632 16.6317 13.3197 15.9752 13.3197 15.1653C13.3197 14.3554 12.6632 13.6988 11.8533 13.6988" stroke="#FFF4E9" stroke-width="1.5" stroke-linecap="round"/>
<path d="M5.5463 7.26069L5.5463 8.28485C5.54631 9.95563 4.19188 11.3101 2.5211 11.3101H1.49694" stroke="#FFF4E9" stroke-width="1.5" stroke-linecap="round"/>
<path d="M18.4536 7.26069V8.28485C18.4536 9.95563 19.808 11.3101 21.4788 11.3101L22.4715 11.3101" stroke="#FFF4E9" stroke-width="1.5" stroke-linecap="round"/>
<path d="M1.49694 16.1501L2.5211 16.1501C4.19188 16.1501 5.54631 17.5045 5.54631 19.1753L5.54631 20.168" stroke="#FFF4E9" stroke-width="1.5" stroke-linecap="round"/>
<path d="M22.4715 16.1501L21.4788 16.1501C19.808 16.1501 18.4536 17.5045 18.4536 19.1753L18.4536 20.168" stroke="#FFF4E9" stroke-width="1.5" stroke-linecap="round"/>
</svg>
