<svg width="20" height="20" viewBox="0 0 20 20" fill="none" xmlns="http://www.w3.org/2000/svg">
<path d="M3.31405 1.13158C3.80905 0.636579 4.61161 0.636579 5.10661 1.13158L7.64318 3.66815C8.13818 4.16315 8.13818 4.96571 7.64318 5.46071L6.22359 6.8803C5.93575 7.16815 5.89444 7.60937 6.09972 7.94254C6.97072 9.35619 7.71747 10.4014 8.63186 11.3214C9.54684 12.242 10.602 13.0094 12.0592 13.9016L12.4535 13.2575L12.0592 13.9016C12.3919 14.1053 12.832 14.0638 13.1194 13.7764L14.5391 12.3567C15.0341 11.8617 15.8367 11.8617 16.3317 12.3567L18.8683 14.8932C19.3633 15.3882 19.3633 16.1908 18.8683 16.6858L17.5291 18.0249C16.3581 19.196 14.6712 19.5823 13.2893 18.9057C8.12535 16.3778 3.62207 11.8745 1.09409 6.71058C0.417576 5.32866 0.803874 3.64176 1.9749 2.47073L3.31405 1.13158Z" stroke="#FF9228" stroke-width="1.5"/>
</svg>
