<svg width="54" height="94" viewBox="0 0 54 94" fill="none" xmlns="http://www.w3.org/2000/svg">
<path d="M42.4911 83.4681L42.6793 79.2435C44.6405 78.1965 46.8281 77.6435 49.052 77.6324C45.9913 80.1314 46.3738 84.9486 44.2987 88.3091C43.6434 89.3523 42.7615 90.2348 41.7183 90.8913C40.6751 91.5478 39.4973 91.9615 38.2723 92.1017L35.711 93.6677C35.3595 91.7111 35.437 89.7016 35.9381 87.7777C36.4392 85.8539 37.352 84.0614 38.6135 82.5237C39.3298 81.6681 40.1512 80.906 41.0582 80.2553C41.6716 81.8706 42.4911 83.4681 42.4911 83.4681Z" fill="#E6E6E6"/>
<path d="M35.8919 91.4937L33.5725 91.4935L32.4692 82.56L35.8923 82.5602L35.8919 91.4937Z" fill="#FFB6B6"/>
<path d="M36.4832 93.7387L29.0051 93.7384V93.644C29.0051 92.8731 29.3118 92.1338 29.8577 91.5886C30.4035 91.0435 31.1438 90.7373 31.9158 90.7372H31.916L33.2819 89.7023L35.8306 90.7374L36.4834 90.7374L36.4832 93.7387Z" fill="#2F2E41"/>
<path d="M25.1169 91.4937L22.7978 91.4935L21.6945 82.56L25.1175 82.5602L25.1169 91.4937Z" fill="#FFB6B6"/>
<path d="M25.7085 93.7387L18.2303 93.7384V93.644C18.2304 92.8731 18.537 92.1338 19.0829 91.5886C19.6288 91.0435 20.3691 90.7373 21.141 90.7372H21.1412L22.5072 89.7023L25.0558 90.7374L25.7086 90.7374L25.7085 93.7387Z" fill="#2F2E41"/>
<path d="M24.1131 42.6535L39.1984 43.0301C42.0634 44.5841 42.107 47.9476 41.1682 51.941C41.1682 51.941 41.4851 54.3146 40.8513 54.9475C40.2175 55.5805 39.9006 55.5805 40.2175 56.6882C40.5344 57.7958 38.8601 59.605 39.0634 59.808C39.2668 60.0111 39.7422 61.1188 39.7422 61.1188L38.1576 70.1384C38.1576 70.1384 37.0485 85.8039 36.7316 86.1204C36.4147 86.4368 36.0978 86.1204 36.4147 86.9116C36.7316 87.7027 37.0485 87.3863 36.7316 87.7027C36.4509 88.005 36.1864 88.3219 35.9393 88.6522H32.1084C32.1084 88.6522 31.8196 87.0698 31.8196 86.9116C31.8196 86.7533 31.5027 85.8039 31.5027 85.6457C31.5027 85.4874 31.7828 85.2077 31.7828 85.2077C31.8796 84.886 31.9449 84.5558 31.978 84.2215C31.978 83.905 32.9287 71.7207 32.9287 71.7207L31.0273 55.897L26.4322 71.4043C26.4322 71.4043 26.4322 85.0127 26.1153 85.3292C25.7984 85.6456 25.7984 85.4874 25.9569 86.1204C26.1153 86.7533 26.7491 86.5951 26.2738 87.0698C25.7984 87.5445 25.64 86.7533 25.7984 87.5445L25.9569 88.3357L21.2033 88.4036C21.2033 88.4036 20.5695 87.0698 20.8864 86.5951C21.2033 86.1204 21.1843 86.2499 20.7977 85.4731C20.411 84.6962 20.2526 84.538 20.411 84.3797C20.5695 84.2215 20.5695 83.3799 20.5695 83.3799L21.3618 68.2395C21.3618 68.2395 21.5202 52.2575 21.5202 51.7828C21.5322 51.5385 21.4871 51.2948 21.3886 51.0709V50.4265L21.9956 48.1433L24.1131 42.6535Z" fill="#69687F"/>
<path d="M33.1752 11.3282C35.7638 11.3282 37.8622 9.23258 37.8622 6.64747C37.8622 4.06236 35.7638 1.96672 33.1752 1.96672C30.5865 1.96672 28.4881 4.06236 28.4881 6.64747C28.4881 9.23258 30.5865 11.3282 33.1752 11.3282Z" fill="#FFB6B6"/>
<path d="M30.8315 14.4219C29.8217 15.0214 29.2177 16.1229 28.8709 17.2438C28.229 19.319 27.8426 21.4645 27.7202 23.633L27.354 30.1251L22.8181 43.9486C26.7492 47.2704 41.5256 44.7036 41.5256 44.7036C41.5256 44.7036 41.9792 44.5526 41.5256 44.0996C41.072 43.6466 40.6304 44.048 41.084 43.595C41.5376 43.142 41.2249 43.6466 41.0737 43.1937C40.9225 42.7407 41.0737 43.0427 41.2249 42.8917C41.3761 42.7407 40.0545 41.3817 40.0545 41.3817L41.264 33.4469L42.776 17.4418C40.9616 15.1769 37.3127 13.8417 37.3127 13.8417L36.3699 12.1469L31.6557 12.5236L30.8315 14.4219Z" fill="#130160"/>
<path d="M30.1887 3.90045C30.3701 3.90187 30.5506 3.92552 30.7261 3.97088C31.0723 4.05398 31.4238 4.11285 31.7782 4.14705C32.8632 4.249 33.8828 4.71112 34.674 5.45962C35.4652 6.20811 35.9825 7.1998 36.1431 8.27629C36.4155 8.03916 37.0352 7.60295 37.5432 8.00835C37.5509 8.01479 37.5554 8.0181 37.5733 8.00964C37.9106 7.84983 38.5095 5.88268 38.5276 4.15064C38.5372 3.23134 38.3923 2.05743 37.6478 1.68568L37.6085 1.66609L37.5982 1.62352C37.5485 1.41673 36.9927 1.06373 36.0269 0.788992C34.2716 0.289709 31.6551 -0.682903 30.1818 0.748466C30.0703 1.23101 29.7075 2.26367 29.3411 2.38072C28.9353 2.51028 28.5849 2.62208 28.5296 3.11916C28.4835 3.82654 28.4868 4.53627 28.5397 5.24318C28.6772 4.81061 28.947 4.432 29.3113 4.16066C29.5703 3.98653 29.8765 3.89572 30.1887 3.90045Z" fill="#2F2E41"/>
<path d="M21.4646 29.7637L29.121 24.867L25.2647 19.7477L21.4569 24.4253L9.59259 25.152C9.28054 24.844 8.88546 24.6332 8.45556 24.5455C8.02565 24.4578 7.57947 24.4969 7.17144 24.6581C6.7634 24.8192 6.41114 25.0955 6.1576 25.4531C5.90405 25.8107 5.76018 26.2343 5.74352 26.6722C5.72687 27.1101 5.83815 27.5433 6.0638 27.9192C6.28945 28.295 6.61972 28.5971 7.01434 28.7887C7.40895 28.9803 7.85087 29.0531 8.2862 28.9982C8.72153 28.9433 9.13147 28.7631 9.46603 28.4796L21.4646 29.7637Z" fill="#FFB6B6"/>
<path d="M36.2272 18.0321C36.6715 20.7177 28.2799 25.8461 28.2799 25.8461C28.2798 25.2158 23.2713 29.9746 23.0452 29.4518C22.4027 27.9659 21.9509 24.4467 21.0531 23.8834C20.5396 23.5612 24.1454 20.535 24.1454 20.535C24.1454 20.535 26.0329 18.6361 28.5098 16.241C29.1975 15.5508 30.0488 15.0457 30.9846 14.7725C31.9203 14.4994 32.9101 14.4671 33.8617 14.6787C33.8617 14.6787 35.7828 15.3464 36.2272 18.0321Z" fill="#130160"/>
<path d="M52.0082 31.049L46.9438 23.5084L41.9004 27.467L46.664 31.1698L47.6427 43.0001C47.3409 43.3182 47.1383 43.7171 47.0596 44.1481C46.9809 44.5792 47.0295 45.0239 47.1995 45.4279C47.3695 45.8318 47.6535 46.1777 48.0169 46.4233C48.3803 46.6689 48.8074 46.8035 49.2461 46.8109C49.6848 46.8182 50.1162 46.698 50.4877 46.4647C50.8591 46.2315 51.1546 45.8953 51.338 45.4973C51.5215 45.0992 51.585 44.6564 51.5209 44.223C51.4567 43.7895 51.2676 43.384 50.9767 43.056L52.0082 31.049Z" fill="#FFB6B6"/>
<path d="M39.9508 16.5582C42.63 16.0576 47.9419 24.3274 47.9419 24.3274C47.3109 24.3409 52.1811 29.2408 51.6625 29.4776C50.1886 30.1506 46.6749 30.6761 46.13 31.5845C45.8184 32.1039 42.7124 28.5679 42.7124 28.5679C42.7124 28.5679 40.7714 26.7236 38.3211 24.3013C37.6156 23.6294 37.0919 22.79 36.7986 21.8615C36.5053 20.933 36.4521 19.9455 36.6437 18.9909C36.6437 18.9909 37.2715 17.0587 39.9508 16.5582Z" fill="#130160"/>
<path d="M53.302 93.776C53.302 93.8054 53.2963 93.8346 53.2851 93.8618C53.2738 93.8891 53.2573 93.9138 53.2364 93.9346C53.2156 93.9554 53.1908 93.9719 53.1635 93.9832C53.1363 93.9944 53.107 94.0001 53.0776 94.0001H0.224394C0.164881 94.0001 0.107799 93.9764 0.0657173 93.9344C0.0236353 93.8924 0 93.8354 0 93.776C0 93.7165 0.0236353 93.6595 0.0657173 93.6175C0.107799 93.5755 0.164881 93.5519 0.224394 93.5519H53.0776C53.107 93.5518 53.1363 93.5575 53.1635 93.5687C53.1908 93.58 53.2156 93.5965 53.2364 93.6173C53.2573 93.6381 53.2738 93.6629 53.2851 93.6901C53.2963 93.7173 53.302 93.7465 53.302 93.776Z" fill="#130160"/>
</svg>
