<svg width="29" height="27" viewBox="0 0 29 27" fill="none" xmlns="http://www.w3.org/2000/svg">
<path d="M20.4804 0H8.48045C6.27132 0 4.48046 1.79086 4.48046 3.99999H24.4804C24.4804 1.79086 22.6896 0 20.4804 0Z" fill="#FF9228"/>
<path d="M1.73047 9.99998V10.75H2.48046H26.4804H27.2304V9.99998V7.99998C27.2304 5.37664 25.1038 3.24999 22.4804 3.24999H6.48046C3.85711 3.24999 1.73047 5.37664 1.73047 7.99998V9.99998Z" fill="#FF9228" stroke="#FFF5F3" stroke-width="1.5"/>
<rect x="0.749997" y="8.26951" width="27.5" height="17.5" rx="4.75" fill="#FF9228" stroke="#FFF5F3" stroke-width="1.5"/>
<path d="M14.2804 13.0529L14.2804 12.0561" stroke="#FFF5F3" stroke-width="1.5" stroke-linecap="round"/>
<path d="M14.2804 21.8715L14.2804 20.8747" stroke="#FFF5F3" stroke-width="1.5" stroke-linecap="round"/>
<path d="M16.1355 15.1631C16.1355 14.1592 15.3217 13.3453 14.3177 13.3453C13.3138 13.3453 12.4999 14.1592 12.4999 15.1631C12.4999 16.1671 13.3138 16.9809 14.3177 16.9809" stroke="#FFF5F3" stroke-width="1.5" stroke-linecap="round"/>
<path d="M12.4999 18.7986C12.4999 19.8026 13.3138 20.6164 14.3177 20.6164C15.3217 20.6164 16.1355 19.8026 16.1355 18.7986C16.1355 17.7947 15.3217 16.9808 14.3177 16.9808" stroke="#FFF5F3" stroke-width="1.5" stroke-linecap="round"/>
<path d="M6.49999 8.99998L6.49999 11.0195C6.49999 12.6764 5.15685 14.0195 3.5 14.0195H1.48047" stroke="#FFF5F3" stroke-width="1.5" stroke-linecap="round"/>
<path d="M22.4999 8.99998V11.0195C22.4999 12.6764 23.843 14.0195 25.4999 14.0195L27.4803 14.0195" stroke="#FFF5F3" stroke-width="1.5" stroke-linecap="round"/>
<path d="M1.48047 20.0194L3.49999 20.0194C5.15685 20.0194 6.49999 21.3625 6.49999 23.0194L6.49999 24.9999" stroke="#FFF5F3" stroke-width="1.5" stroke-linecap="round"/>
<path d="M27.4803 20.0194L25.4999 20.0194C23.843 20.0194 22.4999 21.3625 22.4999 23.0194L22.4999 24.9999" stroke="#FFF5F3" stroke-width="1.5" stroke-linecap="round"/>
</svg>
