<svg width="20" height="12" viewBox="0 0 20 12" fill="none" xmlns="http://www.w3.org/2000/svg">
<path d="M19.2389 6.36553C19.6593 6.36553 20 6.02479 20 5.60446C20 5.18414 19.6593 4.84339 19.2389 4.84339V6.36553ZM0.222879 5.06631C-0.0743367 5.36352 -0.0743367 5.84541 0.222879 6.14262L5.0663 10.986C5.36351 11.2833 5.84539 11.2833 6.14261 10.986C6.43983 10.6888 6.43983 10.2069 6.14261 9.90972L1.83735 5.60446L6.14261 1.29921C6.43983 1.00199 6.43983 0.520107 6.14261 0.22289C5.84539 -0.0743261 5.36351 -0.0743261 5.0663 0.22289L0.222879 5.06631ZM19.2389 4.84339L0.761037 4.84339V6.36553L19.2389 6.36553V4.84339Z" fill="#0D0140"/>
</svg>
