<svg width="20" height="18" viewBox="0 0 20 18" fill="none" xmlns="http://www.w3.org/2000/svg">
<path d="M0.75 6.94449C0.75 5.18022 2.18022 3.75 3.94449 3.75C4.85468 3.75 5.70465 3.29511 6.20953 2.53779L6.43657 2.19722C7.03934 1.29308 8.05409 0.75 9.14073 0.75H10.6265C11.591 0.75 12.5057 1.17842 13.1232 1.9194L13.8241 2.76051C14.3466 3.38749 15.1206 3.75 15.9367 3.75H16C17.7949 3.75 19.25 5.20507 19.25 7V14C19.25 15.7949 17.7949 17.25 16 17.25H4C2.20507 17.25 0.75 15.7949 0.75 14V6.94449Z" fill="#FF9228" stroke="#FF9228" stroke-width="1.5"/>
<circle cx="10" cy="10" r="4.25" stroke="white" stroke-width="1.5"/>
</svg>
