<svg width="21" height="20" viewBox="0 0 21 20" fill="none" xmlns="http://www.w3.org/2000/svg">
<mask id="path-1-inside-1_1_1474" fill="white">
<path fill-rule="evenodd" clip-rule="evenodd" d="M19.9127 8.09933C20.4732 7.69947 20.4732 6.86655 19.9127 6.46669L11.1108 0.188166C10.4471 -0.285286 9.52582 0.189194 9.52582 1.00448V3.96884C4.22088 4.23006 0 8.61396 0 13.9837V20L1.70203 15.9045C3.03547 12.6959 6.08575 10.5534 9.52581 10.3627V13.5615C9.52581 14.3768 10.4471 14.8513 11.1108 14.3779L19.9127 8.09933Z"/>
</mask>
<path d="M19.9127 6.46669L19.0392 7.69117L19.0392 7.69117L19.9127 6.46669ZM19.9127 8.09933L19.0392 6.87485L19.0392 6.87485L19.9127 8.09933ZM11.1108 0.188166L11.9843 -1.03631V-1.03631L11.1108 0.188166ZM9.52582 3.96884L9.59979 5.47109L11.0299 5.40067V3.96884H9.52582ZM0 20H-1.50408L1.38891 20.5772L0 20ZM1.70203 15.9045L0.313119 15.3273H0.313119L1.70203 15.9045ZM9.52581 10.3627H11.0299V8.77295L9.44255 8.86095L9.52581 10.3627ZM11.1108 14.3779L10.2374 13.1534L11.1108 14.3779ZM19.0392 7.69117C18.7589 7.49124 18.759 7.07478 19.0392 6.87485L20.7861 9.3238C22.1875 8.32416 22.1875 6.24187 20.7861 5.24222L19.0392 7.69117ZM10.2374 1.41264L19.0392 7.69117L20.7861 5.24222L11.9843 -1.03631L10.2374 1.41264ZM11.0299 1.00448C11.0299 1.41213 10.5692 1.64937 10.2374 1.41264L11.9843 -1.03631C10.3249 -2.21994 8.02174 -1.03374 8.02174 1.00448H11.0299ZM11.0299 3.96884V1.00448H8.02174V3.96884H11.0299ZM1.50408 13.9837C1.50408 9.41986 5.09183 5.69307 9.59979 5.47109L9.45184 2.46658C3.34994 2.76705 -1.50408 7.80806 -1.50408 13.9837H1.50408ZM1.50408 20V13.9837H-1.50408V20H1.50408ZM0.313119 15.3273L-1.38891 19.4228L1.38891 20.5772L3.09094 16.4817L0.313119 15.3273ZM9.44255 8.86095C5.42818 9.08352 1.86907 11.5833 0.313119 15.3273L3.09094 16.4817C4.20187 13.8085 6.74332 12.0234 9.60908 11.8645L9.44255 8.86095ZM11.0299 13.5615V10.3627H8.02174V13.5615H11.0299ZM10.2374 13.1534C10.5693 12.9166 11.0299 13.1539 11.0299 13.5615H8.02174C8.02174 15.5998 10.3249 16.786 11.9843 15.6023L10.2374 13.1534ZM19.0392 6.87485L10.2374 13.1534L11.9843 15.6023L20.7861 9.3238L19.0392 6.87485Z" fill="#6F6B80" mask="url(#path-1-inside-1_1_1474)"/>
</svg>
