<svg width="23" height="19" viewBox="0 0 23 19" fill="none" xmlns="http://www.w3.org/2000/svg">
<path d="M17.8798 16.3281V10.0449L4.27132 8.5175V16.3281C4.27132 17.2358 4.88154 18.0359 5.76586 18.2404C9.71116 19.153 12.4399 19.1529 16.3852 18.2404C17.2696 18.0358 17.8798 17.2358 17.8798 16.3281Z" fill="#FF9228"/>
<path d="M9.39412 1.00554L1.00631 5.7031C0.674526 5.88891 0.663136 6.36231 0.985598 6.56387L11.8483 13.3536C12.5814 13.8119 13.526 13.7475 14.1902 13.1939L22.0693 6.62745C22.353 6.391 22.2916 5.93918 21.955 5.78716L11.1957 0.927752C10.6169 0.666312 9.94828 0.695179 9.39412 1.00554Z" fill="#FF9228" stroke="#FFF4E9" stroke-width="1.5" stroke-linecap="round"/>
<path d="M18.2801 15.3225C13.2783 16.3899 8.87296 16.39 3.87114 15.3225" stroke="#FFF4E9" stroke-width="1.5"/>
<path d="M12.3265 5.7155C12.3265 6.18537 11.9456 6.56617 11.476 6.56617C11.0063 6.56617 10.6254 6.18537 10.6254 5.7155C10.6254 5.24564 11.0063 4.86484 11.476 4.86484C11.9456 4.86484 12.3265 5.24564 12.3265 5.7155Z" stroke="#FFF4E9" stroke-width="1.5"/>
<path d="M12.6769 6.11562L19.4812 8.10064" stroke="#FFF4E9" stroke-width="1.5" stroke-linecap="round"/>
<mask id="path-6-inside-1_1_1948" fill="white">
<path d="M19.8875 7.66004L18.8399 8.53871V11.9921C18.8399 12.2814 19.0744 12.5159 19.3637 12.5159C19.653 12.5159 19.8875 12.2814 19.8875 11.9921V7.66004Z"/>
</mask>
<path d="M18.8399 8.53871L17.8753 7.38876L17.339 7.83865V8.53871H18.8399ZM19.8875 7.66004H21.3884V4.442L18.9229 6.51009L19.8875 7.66004ZM19.8045 9.68865L20.852 8.80998L18.9229 6.51009L17.8753 7.38876L19.8045 9.68865ZM18.3865 7.66004V11.9921H21.3884V7.66004H18.3865ZM20.3409 11.9921V8.53871H17.339V11.9921H20.3409ZM19.3637 11.0149C19.9034 11.0149 20.3409 11.4524 20.3409 11.9921H17.339C17.339 13.1103 18.2455 14.0168 19.3637 14.0168V11.0149ZM18.3865 11.9921C18.3865 11.4524 18.824 11.0149 19.3637 11.0149V14.0168C20.4819 14.0168 21.3884 13.1103 21.3884 11.9921H18.3865Z" fill="#FF9228" mask="url(#path-6-inside-1_1_1948)"/>
</svg>
