<svg width="7" height="7" viewBox="0 0 7 7" fill="none" xmlns="http://www.w3.org/2000/svg">
<path d="M2.78807 0.517054C3.01215 -0.172612 3.98785 -0.172611 4.21193 0.517055L4.52499 1.48054C4.6252 1.78897 4.91262 1.99779 5.23692 1.99779H6.25C6.97515 1.99779 7.27666 2.92573 6.68999 3.35197L5.8704 3.94744C5.60804 4.13806 5.49825 4.47594 5.59847 4.78437L5.91152 5.74786C6.13561 6.43752 5.34626 7.01102 4.75959 6.58478L3.94 5.98931C3.67763 5.79869 3.32237 5.7987 3.06 5.98931L2.24041 6.58478C1.65374 7.01102 0.864391 6.43752 1.08848 5.74785L1.40153 4.78437C1.50175 4.47594 1.39196 4.13806 1.1296 3.94744L0.310007 3.35197C-0.276659 2.92573 0.0248486 1.99779 0.750007 1.99779H1.76308C2.08738 1.99779 2.3748 1.78897 2.47501 1.48054L2.78807 0.517054Z" fill="#FF9228"/>
</svg>
