<svg width="23" height="22" viewBox="0 0 23 22" fill="none" xmlns="http://www.w3.org/2000/svg">
<path d="M7.46249 10.6207C7.46249 8.52582 9.16072 6.82759 11.2556 6.82759C13.3505 6.82759 15.0487 8.52582 15.0487 10.6207C15.0487 12.7156 13.3505 14.4138 11.2556 14.4138C9.16072 14.4138 7.46249 12.7156 7.46249 10.6207Z" stroke="#60778C" stroke-width="1.5"/>
<mask id="path-2-inside-1_1_5601" fill="white">
<path fill-rule="evenodd" clip-rule="evenodd" d="M22.5113 10.6207C20.7106 15.069 16.3496 18.2069 11.2556 18.2069C6.16168 18.2069 1.80062 15.069 0 10.6207C1.80062 6.1724 6.16168 3.03448 11.2556 3.03448C16.3496 3.03448 20.7106 6.1724 22.5113 10.6207Z"/>
</mask>
<path d="M22.5113 10.6207L23.9176 11.19L24.1481 10.6207L23.9176 10.0514L22.5113 10.6207ZM0 10.6207L-1.40639 10.0514L-1.63683 10.6207L-1.40639 11.19L0 10.6207ZM21.1049 10.0514C19.5282 13.9465 15.7104 16.6897 11.2556 16.6897V19.7241C16.9887 19.7241 21.8931 16.1915 23.9176 11.19L21.1049 10.0514ZM11.2556 16.6897C6.80081 16.6897 2.98307 13.9465 1.40639 10.0514L-1.40639 11.19C0.618182 16.1915 5.52254 19.7241 11.2556 19.7241V16.6897ZM1.40639 11.19C2.98307 7.29493 6.80081 4.55172 11.2556 4.55172V1.51724C5.52254 1.51724 0.618182 5.04986 -1.40639 10.0514L1.40639 11.19ZM11.2556 4.55172C15.7104 4.55172 19.5282 7.29493 21.1049 11.19L23.9176 10.0514C21.8931 5.04987 16.9887 1.51724 11.2556 1.51724V4.55172Z" fill="#60778C" mask="url(#path-2-inside-1_1_5601)"/>
<path d="M15.0487 0.758621L7.46249 21.2414" stroke="#60778C" stroke-width="1.5" stroke-linecap="round"/>
<path d="M16.2582 0.758621L8.67203 21.2414" stroke="white" stroke-width="1.5" stroke-linecap="round"/>
</svg>
